<svg width="36" height="36" viewBox="0 0 36 36" fill="none" xmlns="http://www.w3.org/2000/svg">
<path d="M27.4089 15.5408V12.2791C27.4089 11.6976 27.1779 11.1399 26.7667 10.7287C26.3555 10.3174 25.7978 10.0864 25.2162 10.0864H18.6381V8.64801C18.9725 8.34761 19.1863 7.91565 19.1863 7.43106C19.1863 6.9949 19.013 6.57661 18.7046 6.2682C18.3962 5.95979 17.9779 5.78653 17.5417 5.78653C17.1056 5.78653 16.6873 5.95979 16.3789 6.2682C16.0705 6.57661 15.8972 6.9949 15.8972 7.43106C15.8972 7.91565 16.111 8.34761 16.4454 8.64801V10.0864H9.86725C9.28571 10.0864 8.72798 10.3174 8.31677 10.7287C7.90556 11.1399 7.67454 11.6976 7.67454 12.2791V15.566L7.5956 15.5715C7.3192 15.5912 7.06053 15.7149 6.87173 15.9178C6.68294 16.1206 6.57804 16.3875 6.57819 16.6646V18.8573C6.57819 19.148 6.69369 19.4269 6.8993 19.6325C7.10491 19.8381 7.38377 19.9536 7.67454 19.9536V25.4354C7.67454 26.0169 7.90556 26.5747 8.31677 26.9859C8.72798 27.3971 9.28571 27.6281 9.86725 27.6281H25.2162C25.7978 27.6281 26.3555 27.3971 26.7667 26.9859C27.1779 26.5747 27.4089 26.0169 27.4089 25.4354V19.9536C27.6997 19.9536 27.9785 19.8381 28.1842 19.6325C28.3898 19.4269 28.5053 19.148 28.5053 18.8573V16.7325C28.518 16.5624 28.491 16.3916 28.4263 16.2337C28.2049 15.6987 27.7301 15.5704 27.4089 15.5408ZM12.06 16.6646C12.06 15.4542 12.7967 14.4718 13.7045 14.4718C14.6123 14.4718 15.349 15.4542 15.349 16.6646C15.349 17.8749 14.6123 18.8573 13.7045 18.8573C12.7967 18.8573 12.06 17.8749 12.06 16.6646ZM21.925 23.2427C20.8275 23.2394 13.1563 23.2427 13.1563 23.2427V21.05C13.1563 21.05 20.8319 21.0478 21.9293 21.05L21.925 23.2427ZM21.379 18.8573C20.4712 18.8573 19.7344 17.8749 19.7344 16.6646C19.7344 15.4542 20.4712 14.4718 21.379 14.4718C22.2867 14.4718 23.0235 15.4542 23.0235 16.6646C23.0235 17.8749 22.2867 18.8573 21.379 18.8573Z" fill="black"/>
<circle cx="17.5417" cy="17.5417" r="17.0417" stroke="black"/>
</svg>
