<svg width="16" height="13" viewBox="0 0 16 13" fill="none" xmlns="http://www.w3.org/2000/svg">
<path d="M8.50521 6.50729L2.48307 7.32579C2.41384 7.33522 2.34887 7.35935 2.29469 7.39575C2.24051 7.43216 2.19904 7.47956 2.17445 7.53319L0.0980473 12.0711C-0.100239 12.4885 0.434654 12.8864 0.925571 12.6855L15.3173 6.81578C15.4168 6.77511 15.5004 6.71267 15.5588 6.63544C15.6173 6.55821 15.6483 6.46924 15.6483 6.37848C15.6483 6.28772 15.6173 6.19875 15.5588 6.12152C15.5004 6.04429 15.4168 5.98185 15.3173 5.94119L0.925571 0.0714537C0.434654 -0.128769 -0.100239 0.269068 0.0980473 0.685819L2.17525 5.22378C2.19984 5.2774 2.24131 5.3248 2.29549 5.36121C2.34967 5.39762 2.41464 5.42175 2.48387 5.43117L8.50601 6.24967C8.54357 6.25457 8.57777 6.27022 8.60246 6.29383C8.62715 6.31744 8.64071 6.34745 8.64071 6.37848C8.64071 6.40951 8.62715 6.43953 8.60246 6.46314C8.57777 6.48674 8.54357 6.5024 8.50601 6.50729H8.50521Z" fill="#999999"/>
</svg>
