<svg width="31" height="31" viewBox="0 0 31 31" fill="none" xmlns="http://www.w3.org/2000/svg">
<path d="M27.0968 7.74194H23.2258C23.2258 5.68865 22.4101 3.71945 20.9582 2.26756C19.5064 0.815666 17.5372 0 15.4839 0C13.4306 0 11.4614 0.815666 10.0095 2.26756C8.5576 3.71945 7.74194 5.68865 7.74194 7.74194H3.87097C2.84432 7.74194 1.85973 8.14977 1.13378 8.87572C0.407833 9.60166 0 10.5863 0 11.6129L0 24.5161C0.00204885 26.2266 0.682428 27.8664 1.8919 29.0758C3.10136 30.2853 4.74117 30.9657 6.45161 30.9677H24.5161C26.2266 30.9657 27.8664 30.2853 29.0758 29.0758C30.2853 27.8664 30.9657 26.2266 30.9677 24.5161V11.6129C30.9677 10.5863 30.5599 9.60166 29.834 8.87572C29.108 8.14977 28.1234 7.74194 27.0968 7.74194ZM15.4839 2.58065C16.8527 2.58065 18.1655 3.12442 19.1335 4.09235C20.1014 5.06028 20.6452 6.37308 20.6452 7.74194H10.3226C10.3226 6.37308 10.8664 5.06028 11.8343 4.09235C12.8022 3.12442 14.115 2.58065 15.4839 2.58065ZM28.3871 24.5161C28.3871 25.5428 27.9793 26.5274 27.2533 27.2533C26.5274 27.9793 25.5428 28.3871 24.5161 28.3871H6.45161C5.42497 28.3871 4.44037 27.9793 3.71443 27.2533C2.98848 26.5274 2.58065 25.5428 2.58065 24.5161V11.6129C2.58065 11.2707 2.71659 10.9425 2.95857 10.7005C3.20055 10.4585 3.52875 10.3226 3.87097 10.3226H7.74194V12.9032C7.74194 13.2454 7.87788 13.5736 8.11986 13.8156C8.36185 14.0576 8.69004 14.1935 9.03226 14.1935C9.37447 14.1935 9.70267 14.0576 9.94465 13.8156C10.1866 13.5736 10.3226 13.2454 10.3226 12.9032V10.3226H20.6452V12.9032C20.6452 13.2454 20.7811 13.5736 21.0231 13.8156C21.2651 14.0576 21.5933 14.1935 21.9355 14.1935C22.2777 14.1935 22.6059 14.0576 22.8479 13.8156C23.0899 13.5736 23.2258 13.2454 23.2258 12.9032V10.3226H27.0968C27.439 10.3226 27.7672 10.4585 28.0092 10.7005C28.2512 10.9425 28.3871 11.2707 28.3871 11.6129V24.5161Z" fill="black"/>
</svg>
